<mxfile host="65bd71144e">
    <diagram id="-6GW9z_rGy0T3JY8U6xC" name="Page-1">
        <mxGraphModel dx="1165" dy="1890" grid="1" gridSize="10" guides="1" tooltips="1" connect="1" arrows="1" fold="1" page="1" pageScale="1" pageWidth="827" pageHeight="1169" math="0" shadow="0">
            <root>
                <mxCell id="0"/>
                <mxCell id="1" parent="0"/>
                <mxCell id="4" value="" style="edgeStyle=none;html=1;fontFamily=Helvetica;fontSize=12;fontColor=#FFFFFF;strokeColor=#000000;strokeWidth=2;" parent="1" source="2" target="3" edge="1">
                    <mxGeometry relative="1" as="geometry"/>
                </mxCell>
                <mxCell id="2" value="Başla" style="strokeWidth=2;html=1;shape=mxgraph.flowchart.start_2;whiteSpace=wrap;fillColor=#a0522d;strokeColor=#6D1F00;fontColor=#FFFFFF;" parent="1" vertex="1">
                    <mxGeometry x="340" y="-50" width="100" height="100" as="geometry"/>
                </mxCell>
                <mxCell id="10" value="" style="edgeStyle=none;shape=connector;rounded=1;html=1;labelBackgroundColor=default;fontFamily=Helvetica;fontSize=12;fontColor=#FFFFFF;endArrow=classic;strokeColor=#000000;strokeWidth=2;" parent="1" source="3" target="9" edge="1">
                    <mxGeometry relative="1" as="geometry"/>
                </mxCell>
                <mxCell id="3" value="List YöneticiListesi;&lt;br&gt;List SatirListesi;&lt;br&gt;File file =File(veriler.txt);" style="shape=parallelogram;perimeter=parallelogramPerimeter;whiteSpace=wrap;html=1;fixedSize=1;fillColor=#a0522d;strokeColor=#6D1F00;fontColor=#FFFFFF;strokeWidth=2;" parent="1" vertex="1">
                    <mxGeometry x="293.75" y="80" width="192.5" height="140" as="geometry"/>
                </mxCell>
                <mxCell id="16" value="" style="edgeStyle=none;shape=connector;rounded=1;html=1;labelBackgroundColor=default;fontFamily=Helvetica;fontSize=12;fontColor=#FFFFFF;endArrow=classic;strokeColor=#000000;strokeWidth=2;" parent="1" source="9" target="15" edge="1">
                    <mxGeometry relative="1" as="geometry"/>
                </mxCell>
                <mxCell id="9" value="file içeriğinin hepsini programın içinde bir stringe kopyala." style="whiteSpace=wrap;html=1;fillColor=#a0522d;strokeColor=#6D1F00;fontColor=#FFFFFF;strokeWidth=2;" parent="1" vertex="1">
                    <mxGeometry x="315" y="280" width="150" height="80" as="geometry"/>
                </mxCell>
                <mxCell id="15" value="içeri alınan veriler üzerinde satır okuma yapalım.&lt;br&gt;her satır indexi değiştiğinde(for dögüsü) yönetici listeye add() metotdu ile yeni bir satır listesi eklensin.&lt;br&gt;&lt;br&gt;satır listesine, satır boyunca okunan her bir eleman eklensin.&lt;br&gt;&lt;br&gt;satır sonuna gelindiğinde bir alt satır var mı kontrolü yapılsın.&lt;br&gt;&lt;br&gt;eğer alt satır mevcutsa yeni bir satır listesi yaratılsın aynı işlemler tekrarlansın ve yönetici listeye add() ile eklensin.&lt;br&gt;&lt;br&gt;okunacak yeni satır yok ise yönetici liste elemanları kendi arasında sıralanma algoritması çalışsın.&lt;br&gt;&lt;br&gt;kendi arasında sıralama algoritması: &lt;br&gt;Yönetici listenin elemanlarına sırasıyla erişilsin.&lt;br&gt;erişilen elemanların, elemanlarının taşıdığı değere erişim sağlansın.&lt;br&gt;bu değerler toplanıp eleman sayısına(satır listesi) bölünsün.&amp;nbsp;" style="whiteSpace=wrap;html=1;fillColor=#a0522d;strokeColor=#6D1F00;fontColor=#FFFFFF;strokeWidth=2;" parent="1" vertex="1">
                    <mxGeometry x="197.5" y="410" width="402.5" height="320" as="geometry"/>
                </mxCell>
                <mxCell id="19" value="" style="edgeStyle=none;html=1;fontFamily=Helvetica;fontSize=12;fontColor=#FFFFFF;strokeColor=#000000;strokeWidth=2;" parent="1" source="20" target="22" edge="1">
                    <mxGeometry relative="1" as="geometry"/>
                </mxCell>
                <mxCell id="20" value="Başla" style="strokeWidth=2;html=1;shape=mxgraph.flowchart.start_2;whiteSpace=wrap;fillColor=#a0522d;strokeColor=#6D1F00;fontColor=#FFFFFF;" parent="1" vertex="1">
                    <mxGeometry x="873.25" y="-55" width="100" height="100" as="geometry"/>
                </mxCell>
                <mxCell id="21" value="" style="edgeStyle=none;shape=connector;rounded=1;html=1;labelBackgroundColor=default;fontFamily=Helvetica;fontSize=12;fontColor=#FFFFFF;endArrow=classic;strokeColor=#000000;strokeWidth=2;" parent="1" source="22" target="23" edge="1">
                    <mxGeometry relative="1" as="geometry"/>
                </mxCell>
                <mxCell id="22" value="List YöneticiListesi;&lt;br&gt;List SatirListesi;&lt;br&gt;File file =File(veriler.txt);&lt;br&gt;string veriler=&quot;&quot;;&lt;br&gt;int satır_index=0;" style="shape=parallelogram;perimeter=parallelogramPerimeter;whiteSpace=wrap;html=1;fixedSize=1;fillColor=#a0522d;strokeColor=#6D1F00;fontColor=#FFFFFF;strokeWidth=2;" parent="1" vertex="1">
                    <mxGeometry x="827" y="75" width="192.5" height="140" as="geometry"/>
                </mxCell>
                <mxCell id="25" value="" style="edgeStyle=none;shape=connector;rounded=1;html=1;labelBackgroundColor=default;fontFamily=Helvetica;fontSize=12;fontColor=#FFFFFF;endArrow=classic;strokeColor=#000000;strokeWidth=2;" parent="1" source="23" target="24" edge="1">
                    <mxGeometry relative="1" as="geometry"/>
                </mxCell>
                <mxCell id="23" value="veriler=file.copyContent();" style="whiteSpace=wrap;html=1;fillColor=#a0522d;strokeColor=#6D1F00;fontColor=#FFFFFF;strokeWidth=2;" parent="1" vertex="1">
                    <mxGeometry x="848.25" y="275" width="150" height="80" as="geometry"/>
                </mxCell>
                <mxCell id="27" value="" style="edgeStyle=none;shape=connector;rounded=1;html=1;labelBackgroundColor=default;fontFamily=Helvetica;fontSize=12;fontColor=#FFFFFF;endArrow=classic;strokeColor=#000000;strokeWidth=2;" parent="1" source="24" target="26" edge="1">
                    <mxGeometry relative="1" as="geometry"/>
                </mxCell>
                <mxCell id="40" value="döngü" style="edgeLabel;html=1;align=center;verticalAlign=middle;resizable=0;points=[];fontSize=12;fontFamily=Helvetica;fontColor=#000000;" vertex="1" connectable="0" parent="27">
                    <mxGeometry x="-0.118" y="1" relative="1" as="geometry">
                        <mxPoint as="offset"/>
                    </mxGeometry>
                </mxCell>
                <mxCell id="45" value="çıkış" style="edgeStyle=none;shape=connector;rounded=1;html=1;labelBackgroundColor=default;fontFamily=Helvetica;fontSize=12;fontColor=#000000;endArrow=classic;strokeColor=#000000;strokeWidth=2;" edge="1" parent="1" source="24" target="44">
                    <mxGeometry relative="1" as="geometry"/>
                </mxCell>
                <mxCell id="24" value="verilerin son karakterine varasıya dek tara" style="shape=hexagon;perimeter=hexagonPerimeter2;whiteSpace=wrap;html=1;fixedSize=1;fillColor=#a0522d;strokeColor=#6D1F00;fontColor=#FFFFFF;strokeWidth=2;" parent="1" vertex="1">
                    <mxGeometry x="820.68" y="400" width="205.13" height="110" as="geometry"/>
                </mxCell>
                <mxCell id="26" value="veriler string yapısını boşluk göresiye kadar oku, okumaya başladığın yerden durduğun yere kadar substr() al. sonucu satırlar listesine yaz yazarken integer dönüşümü yap. gecici liste int tipinde veri tutuyor." style="whiteSpace=wrap;html=1;fillColor=#a0522d;strokeColor=#6D1F00;fontColor=#FFFFFF;strokeWidth=2;" parent="1" vertex="1">
                    <mxGeometry x="825.17" y="560" width="194.33" height="130" as="geometry"/>
                </mxCell>
                <mxCell id="34" value="" style="endArrow=classic;html=1;rounded=1;labelBackgroundColor=default;fontFamily=Helvetica;fontSize=12;fontColor=#FFFFFF;strokeColor=#000000;strokeWidth=2;shape=connector;exitX=0;exitY=0.5;exitDx=0;exitDy=0;" edge="1" parent="1" source="26">
                    <mxGeometry width="50" height="50" relative="1" as="geometry">
                        <mxPoint x="729.5" y="625" as="sourcePoint"/>
                        <mxPoint x="780" y="625" as="targetPoint"/>
                    </mxGeometry>
                </mxCell>
                <mxCell id="35" value="" style="endArrow=classic;html=1;rounded=1;labelBackgroundColor=default;fontFamily=Helvetica;fontSize=12;fontColor=#FFFFFF;strokeColor=#000000;strokeWidth=2;shape=connector;" edge="1" parent="1">
                    <mxGeometry width="50" height="50" relative="1" as="geometry">
                        <mxPoint x="780" y="630" as="sourcePoint"/>
                        <mxPoint x="780" y="380" as="targetPoint"/>
                    </mxGeometry>
                </mxCell>
                <mxCell id="36" value="" style="endArrow=classic;html=1;rounded=1;labelBackgroundColor=default;fontFamily=Helvetica;fontSize=12;fontColor=#FFFFFF;strokeColor=#000000;strokeWidth=2;shape=connector;" edge="1" parent="1">
                    <mxGeometry width="50" height="50" relative="1" as="geometry">
                        <mxPoint x="780" y="380" as="sourcePoint"/>
                        <mxPoint x="920" y="380" as="targetPoint"/>
                    </mxGeometry>
                </mxCell>
                <mxCell id="51" value="" style="edgeStyle=none;shape=connector;rounded=1;html=1;labelBackgroundColor=default;fontFamily=Helvetica;fontSize=12;fontColor=#000000;endArrow=classic;strokeColor=#000000;strokeWidth=2;" edge="1" parent="1" source="44" target="50">
                    <mxGeometry relative="1" as="geometry"/>
                </mxCell>
                <mxCell id="44" value="üretilen satır listesini yönetici listeye ekle add()." style="whiteSpace=wrap;html=1;fillColor=#a0522d;strokeColor=#6D1F00;fontColor=#FFFFFF;strokeWidth=2;" vertex="1" parent="1">
                    <mxGeometry x="1090" y="407.5" width="168.38" height="95" as="geometry"/>
                </mxCell>
                <mxCell id="55" value="" style="edgeStyle=none;shape=connector;rounded=1;html=1;labelBackgroundColor=default;fontFamily=Helvetica;fontSize=12;fontColor=#000000;endArrow=classic;strokeColor=#000000;strokeWidth=2;" edge="1" parent="1" source="50" target="54">
                    <mxGeometry relative="1" as="geometry"/>
                </mxCell>
                <mxCell id="50" value="satır listesini sil.&lt;br&gt;!elemanları da silinmiş olsun!" style="whiteSpace=wrap;html=1;fillColor=#a0522d;strokeColor=#6D1F00;fontColor=#FFFFFF;strokeWidth=2;" vertex="1" parent="1">
                    <mxGeometry x="1338.38" y="407.5" width="168.38" height="95" as="geometry"/>
                </mxCell>
                <mxCell id="54" value="son" style="ellipse;whiteSpace=wrap;html=1;fillColor=#a0522d;strokeColor=#6D1F00;fontColor=#FFFFFF;strokeWidth=2;" vertex="1" parent="1">
                    <mxGeometry x="1367" y="582.5" width="111.14" height="85" as="geometry"/>
                </mxCell>
            </root>
        </mxGraphModel>
    </diagram>
</mxfile>